<svg width="40" height="41" viewBox="0 0 40 41" fill="none" xmlns="http://www.w3.org/2000/svg">
<rect width="40" height="40.0771" rx="8" fill="#F9AA01"/>
<path d="M21.9708 7.53775C21.1573 6.83882 19.8362 6.83882 19.0227 7.53775L8.61011 16.484C7.79663 17.1829 7.79663 18.318 8.61011 19.0169C9.4236 19.7159 10.7447 19.7159 11.5582 19.0169L18.4175 13.118V30.2725C18.4175 31.2621 19.3481 32.0617 20.5 32.0617C21.6519 32.0617 22.5825 31.2621 22.5825 30.2725V13.118L29.4418 19.0113C30.2553 19.7103 31.5764 19.7103 32.3899 19.0113C33.2034 18.3124 33.2034 17.1774 32.3899 16.4784L21.9773 7.53215L21.9708 7.53775Z" fill="#1B1426"/>
</svg>
