<svg width="21" height="21" viewBox="0 0 21 21" fill="none" xmlns="http://www.w3.org/2000/svg">
<path d="M1.96875 0C0.881836 0 0 1.17578 0 2.625C0 3.45078 0.291211 4.22734 0.7875 4.725L9.7125 13.65C10.1801 14.1148 10.8199 14.1148 11.2875 13.65L20.2125 4.725C20.7088 4.22734 21 3.45078 21 2.625C21 1.17578 20.1182 0 19.0312 0H1.96875ZM0 6.125V17.5C0 19.4305 1.17715 21 2.625 21H18.375C19.8229 21 21 19.4305 21 17.5V6.125L12.075 15.05C11.1398 15.9852 9.86016 15.9852 8.925 15.05L0 6.125Z" fill="black"/>
</svg>
